<svg width="90" height="91" viewBox="0 0 90 91" fill="none" xmlns="http://www.w3.org/2000/svg">
<path d="M40.6917 9.93079H13.2128C9.97379 9.93079 6.86741 11.2175 4.57706 13.5078C2.28671 15.7982 1 18.9046 1 22.1436V77.1014C1 80.3404 2.28671 83.4468 4.57706 85.7372C6.86741 88.0275 9.97379 89.3142 13.2128 89.3142H74.277C77.5161 89.3142 80.6224 88.0275 82.9128 85.7372C85.2032 83.4468 86.4899 80.3404 86.4899 77.1014V49.6225" stroke="#1B1B1B" stroke-opacity="0.7" stroke-width="2" stroke-linecap="round" stroke-linejoin="round"/>
<path d="M74.277 16.0372L80.0964 22.1436M86.4899 3.6228C88.1178 5.30607 89.0191 7.56154 88.9997 9.90313C88.9803 12.2447 88.0416 14.4849 86.3861 16.141L43.7449 58.7821L25.4257 64.8885L31.5321 46.5692L74.1977 3.54342C75.6976 2.03195 77.7047 1.13038 79.8309 1.01307C81.957 0.895769 84.0512 1.57106 85.7082 2.90835L86.4899 3.6228Z" stroke="#1B1B1B" stroke-opacity="0.7" stroke-width="2" stroke-linecap="round" stroke-linejoin="round"/>
</svg>
